<svg width="150" height="24" viewBox="0 0 150 24" fill="none" xmlns="http://www.w3.org/2000/svg">
<path d="M11.8421 0L14.5009 8.2918H23.1046L16.144 13.4164L18.8027 21.7082L11.8421 16.5836L4.88149 21.7082L7.5402 13.4164L0.57959 8.2918H9.18338L11.8421 0Z" fill="#B48D62"/>
<path d="M43.421 0L46.0798 8.2918H54.6836L47.723 13.4164L50.3816 21.7082L43.421 16.5836L36.4605 21.7082L39.1191 13.4164L32.1585 8.2918H40.7623L43.421 0Z" fill="#B48D62"/>
<path d="M75 0L77.6588 8.2918H86.2626L79.302 13.4164L81.9606 21.7082L75 16.5836L68.0394 21.7082L70.6981 13.4164L63.7375 8.2918H72.3413L75 0Z" fill="#B48D62"/>
<path d="M106.579 0L109.237 8.2918H117.842L110.881 13.4164L113.539 21.7082L106.579 16.5836L99.6187 21.7082L102.277 13.4164L95.3164 8.2918H103.92L106.579 0Z" fill="#B48D62"/>
<path d="M138.158 0L140.816 8.2918H149.421L142.46 13.4164L145.118 21.7082L138.158 16.5836L131.198 21.7082L133.856 13.4164L126.895 8.2918H135.499L138.158 0Z" fill="#B48D62"/>
</svg>
